<svg width="65" height="59" xmlns="http://www.w3.org/2000/svg" style="shape-rendering:geometricPrecision; text-rendering:geometricPrecision; image-rendering:optimizeQuality; fill-rule:evenodd; clip-rule:evenodd"><g transform="translate(-74,-120)" fill="#373435" stroke="#373435" stroke-linejoin="round" stroke-width="2"><path d="M96.4124 147.172c-.6938-.791-1.1831-1.5888-1.0553-2.6489.3793-3.1449 3.0822-5.6146 5.3797-7.8684 1.5197-1.4908 3.5162-2.7564 5.7704-3.1889 3.326-.6381 6.6578.6079 9.2955 2.2358 4.4773 2.7631 7.7173 7.1945 8.3401 11.9777.4319 3.3168-.2592 6.8601-2.1232 9.8258-.7874 1.2527-1.9616 2.459-3.387 3.2077-.687.3609-1.4334.6813-2.2254.7692-1.1294.1253-2.2731-.0207-3.3741-.2482-3.1845-.6581-6.4251-1.983-9.1417-3.4712-2.3898-1.3091-5.4851-3.1232-5.7057-5.8869-.0513-.643.1142-1.1936.2851-1.8114l.1134.0244c-.1439 1.0279-.2017 1.9875.2892 2.9554.9692 1.9111 3.5198 3.2626 5.3779 4.2116l6.9253 2.6963c1.8679.559 4.0718 1.0841 6.0106.4114 2.5174-.8734 4.0466-3.2638 4.853-5.3626 1.1548-3.0059 1.3172-6.5337.2494-9.5462-1.2232-3.4504-4.0119-6.6099-7.4012-8.6603-2.2753-1.3765-5.1939-2.4975-8.0534-1.9201-1.3288.2683-2.5185.8703-3.5108 1.6838-2.5703 2.1069-4.8955 4.4256-6.0132 7.3594-.2982.7826-.0791 1.5118.465 2.1148.3559.3218.3391.8378-.0375 1.1526-.3765.3147-.9702.309-1.3261-.0128z" class="fil0 str0"/><path d="M107.106 150.612c-.5833-.2744-1.0472-.4673-1.4532-.946-.7742-.9126-1.0135-2.1891-1.1708-3.2817-.2386-1.6573-.3328-3.6574.9819-5.0508 1.6686-1.7685 4.8832-1.5035 7.1046-1.0659 2.8023.552 5.2602 2.037 6.5314 4.3063 1.0567 1.8865 1.4525 4.1528.7684 6.2198-.6402 1.9337-1.7487 3.6365-3.5078 4.9808-1.801 1.3764-4.5023 2.3926-6.8477 1.5969-.8356-.2835-1.3771-.8533-1.8703-1.4619l.1119-.05c.5551.4635 1.1459.9498 1.9107 1.1477 2.8458.7362 5.8631-1.1265 7.4349-3.0779l1.0315-1.5629.675-1.7759.2331-1.9293-.3708-1.9327-.7327-1.626-1.0441-1.3174c-.7755-.7762-1.7868-1.3721-2.8811-1.769l-1.7796-.4639-1.9626-.1805-2.07.106-.3552.0885-.3354.1247-.2884.1509c-.7539.4595-1.0555 1.3069-1.1138 2.0636-.1042 1.3532.1186 2.8064.6146 4.0818.198.5091.4773.8402 1.0097 1.0786.4886.1425.7449.6041.5725 1.031-.1724.427-.7081.6577-1.1967.5152z" class="fil0 str0"/><path d="M110.294 144.55l-5.3793-.2872c-2.5267.1561-5.5372.7288-6.9957 2.7625-1.509 2.1039-1.0573 4.956-.1788 7.1431.5726 1.4253 1.6524 2.7928 3.3078 3.3814 1.9354.6882 4.5016.1599 6.1569-.93l4.7432-3.9608c.7648-.7546 1.6958-1.8011 1.6048-2.8703-.037-.4357-.2578-.8363-.4209-1.2477l.0972-.055c.259.4107.58.8005.6775 1.263.1679.7959-.2309 1.5913-.6974 2.2609-1.8407 2.6412-4.5086 5.3297-7.9422 6.4103-2.3029.7247-4.8171.4741-6.6358-.9668-2.2509-1.7831-3.1426-4.809-3.1485-7.3889-.0054-2.3847 1.3101-5.0649 3.9991-6.0904 1.6995-.6482 3.5002-1.0877 5.339-1.2409l5.7921.2059c.5106.0689.853.4854.765.9302-.0881.4449-.5734.7496-1.084.6807z" class="fil0 str0"/><path d="M112.585 147.393l-3.1337-1.1451c-1.3284-.2781-3.4285-.5119-4.4149.6161-.4399.503-.5649 1.1781-.5462 1.7885.0506 1.6522.6503 3.7953 2.3169 4.7737 2.081 1.2218 4.8969-.2979 6.0612-1.9131.4458-.6186.7573-1.3175.6141-2.0462l-.3532-.9266.1021-.0543c.4936.6343.8723 1.1605.7365 1.977-.3167 1.9035-2.2871 3.6326-4.3822 4.1459-1.9053.4667-3.7521-.1449-4.884-1.5204-1.4279-1.7354-2.0523-4.1731-1.3811-6.258.3192-.9916 1.5993-1.905 2.7278-2.08 1.2671-.1964 2.5688-.2101 3.8232.0072l3.697 1.2327c.4412.2294.5787.7293.3071 1.1166-.2716.3873-.8495.5154-1.2906.286z" class="fil0 str0"/><path d="M101.853 137.361l-4.276-.4031-5.493.163-5.5867.4184c-2.7037.4574-5.1712 2.127-6.5675 4.1623-1.3453 1.961-1.9692 4.2394-2.2289 6.4794-.2305 1.988-.3956 4.0264.1339 5.9593.3215 1.1731 1.0607 2.2343 1.8651 3.2109 2.1835 2.651 5.1149 4.549 8.7017 5.5587 1.0082.2838 2.0709.4717 3.1355.4913l6.4497-.2544 8.6573-2.5691 2.998-.7511.0141.1116-6.561 2.4821-4.9802 1.3691-3.0927.3768-3.5573.0396-3.35-.4554-2.9728-.9798-2.5723-1.3739c-1.4985-.9374-2.7794-2.1259-3.8794-3.4143-.902-1.0564-1.7286-2.2085-2.108-3.4873-.6147-2.072-.5128-4.2672-.3029-6.4112.3788-3.8676 1.868-7.8743 5.6402-10.2606 2.1111-1.3354 4.6441-1.9163 7.1927-2.1513l5.7363-.1305 5.2697-.1626 2.4713.4722c.4764.1696.6978.6451.4943 1.0621-.2034.4169-.7546.6174-1.2311.4478z" class="fil0 str0"/><path d="M88.6186 132.776l5.1281-4.6287c6.2854-4.2782 14.786-7.4081 22.7366-5.5191 3.3237.7896 6.5956 2.4886 9.1272 4.453 2.4491 1.9006 4.6416 4.0737 6.296 6.5417 1.4165 2.113 2.3862 4.4488 3.0683 6.8298.696 2.4292 1.1917 4.9349 1.0936 7.4483-.1889 4.8375-1.4633 9.5635-3.7949 13.9915-1.1297 2.1454-2.6427 4.179-4.5871 5.833-1.9451 1.6548-4.3362 2.9102-6.9011 3.679-2.8331.8492-5.8623 1.1334-8.8414 1.0745-3.2327-.0638-6.7712-.8142-9.3162-2.6014-1.0388-.7295-1.99-1.8279-2.3075-2.9867-.2057-.7511-.2973-1.536-.1883-2.3069l.4818-1.7286.1159.0299-.2419 3.2247c.0434.462.2579.9.4827 1.3178.6931 1.2876 1.982 2.2417 3.4026 2.906 2.2482 1.0513 5.0874 1.5066 7.6066 1.5148 2.8824.0094 5.8047-.3099 8.5314-1.1642 2.4132-.756 4.6567-1.9681 6.4687-3.5558 1.8342-1.607 3.253-3.5691 4.3033-5.6346 2.193-4.3124 3.3696-8.8967 3.4976-13.5821.066-2.4154-.4446-4.8174-1.1395-7.1454-.6776-2.2698-1.6292-4.4941-3.0039-6.503-1.5893-2.3224-3.6864-4.361-6.0229-6.1402-1.8656-1.4206-4.0175-2.5622-6.2841-3.449-3.5232-1.3782-7.7736-1.4155-11.5071-.6109-4.404.949-8.3981 2.8649-11.9476 5.311l-4.6969 4.2837c-.2878.3785-.8704.4879-1.3012.2443-.4307-.2436-.5466-.7479-.2588-1.1264z" class="fil0 str0"/></g></svg>